<mxfile host="app.diagrams.net" modified="2023-12-24T10:37:58.141Z" agent="Mozilla/5.0 (Macintosh; Intel Mac OS X 10_15_7) AppleWebKit/605.1.15 (KHTML, like Gecko) Version/17.0 Safari/605.1.15" etag="zG96xx5QuPj3aV4L-cvf" version="22.1.11" type="github">
  <diagram name="Page-1" id="l6dxS7nCtbUhm-ElTMN9">
    <mxGraphModel dx="874" dy="1189" grid="0" gridSize="10" guides="1" tooltips="1" connect="1" arrows="1" fold="1" page="0" pageScale="1" pageWidth="850" pageHeight="1100" math="0" shadow="0">
      <root>
        <mxCell id="0" />
        <mxCell id="1" parent="0" />
        <mxCell id="hYfYpdQn1SjsUa1Strw_-1" value="t_user" style="swimlane;fontStyle=0;childLayout=stackLayout;horizontal=1;startSize=30;horizontalStack=0;resizeParent=1;resizeParentMax=0;resizeLast=0;collapsible=1;marginBottom=0;whiteSpace=wrap;html=1;fontSize=16;fillColor=#1ba1e2;strokeColor=#006EAF;fontColor=#ffffff;" vertex="1" parent="1">
          <mxGeometry x="-86" y="-45" width="189" height="210" as="geometry">
            <mxRectangle x="-86" y="-38" width="79" height="31" as="alternateBounds" />
          </mxGeometry>
        </mxCell>
        <mxCell id="hYfYpdQn1SjsUa1Strw_-2" value="userId:int(11)" style="text;strokeColor=none;fillColor=none;align=left;verticalAlign=middle;spacingLeft=4;spacingRight=4;overflow=hidden;points=[[0,0.5],[1,0.5]];portConstraint=eastwest;rotatable=0;whiteSpace=wrap;html=1;fontSize=16;" vertex="1" parent="hYfYpdQn1SjsUa1Strw_-1">
          <mxGeometry y="30" width="189" height="30" as="geometry" />
        </mxCell>
        <mxCell id="hYfYpdQn1SjsUa1Strw_-3" value="userName:varchar(20)" style="text;strokeColor=none;fillColor=none;align=left;verticalAlign=middle;spacingLeft=4;spacingRight=4;overflow=hidden;points=[[0,0.5],[1,0.5]];portConstraint=eastwest;rotatable=0;whiteSpace=wrap;html=1;fontSize=16;" vertex="1" parent="hYfYpdQn1SjsUa1Strw_-1">
          <mxGeometry y="60" width="189" height="30" as="geometry" />
        </mxCell>
        <mxCell id="hYfYpdQn1SjsUa1Strw_-4" value="password:varchar(50)" style="text;strokeColor=none;fillColor=none;align=left;verticalAlign=middle;spacingLeft=4;spacingRight=4;overflow=hidden;points=[[0,0.5],[1,0.5]];portConstraint=eastwest;rotatable=0;whiteSpace=wrap;html=1;fontSize=16;" vertex="1" parent="hYfYpdQn1SjsUa1Strw_-1">
          <mxGeometry y="90" width="189" height="30" as="geometry" />
        </mxCell>
        <mxCell id="hYfYpdQn1SjsUa1Strw_-5" value="nickName:varchar(20)" style="text;strokeColor=none;fillColor=none;align=left;verticalAlign=middle;spacingLeft=4;spacingRight=4;overflow=hidden;points=[[0,0.5],[1,0.5]];portConstraint=eastwest;rotatable=0;whiteSpace=wrap;html=1;fontSize=16;" vertex="1" parent="hYfYpdQn1SjsUa1Strw_-1">
          <mxGeometry y="120" width="189" height="30" as="geometry" />
        </mxCell>
        <mxCell id="hYfYpdQn1SjsUa1Strw_-6" value="imageName:varchar(40)" style="text;strokeColor=none;fillColor=none;align=left;verticalAlign=middle;spacingLeft=4;spacingRight=4;overflow=hidden;points=[[0,0.5],[1,0.5]];portConstraint=eastwest;rotatable=0;whiteSpace=wrap;html=1;fontSize=16;" vertex="1" parent="hYfYpdQn1SjsUa1Strw_-1">
          <mxGeometry y="150" width="189" height="30" as="geometry" />
        </mxCell>
        <mxCell id="hYfYpdQn1SjsUa1Strw_-8" value="mood:varchar(200)" style="text;strokeColor=none;fillColor=none;align=left;verticalAlign=middle;spacingLeft=4;spacingRight=4;overflow=hidden;points=[[0,0.5],[1,0.5]];portConstraint=eastwest;rotatable=0;whiteSpace=wrap;html=1;fontSize=16;" vertex="1" parent="hYfYpdQn1SjsUa1Strw_-1">
          <mxGeometry y="180" width="189" height="30" as="geometry" />
        </mxCell>
        <mxCell id="hYfYpdQn1SjsUa1Strw_-9" value="t_diary" style="swimlane;fontStyle=0;childLayout=stackLayout;horizontal=1;startSize=30;horizontalStack=0;resizeParent=1;resizeParentMax=0;resizeLast=0;collapsible=1;marginBottom=0;whiteSpace=wrap;html=1;fontSize=16;fillColor=#1ba1e2;fontColor=#ffffff;strokeColor=#006EAF;" vertex="1" parent="1">
          <mxGeometry x="-75" y="240" width="167" height="180" as="geometry" />
        </mxCell>
        <mxCell id="hYfYpdQn1SjsUa1Strw_-10" value="diaryld:int(11)" style="text;strokeColor=none;fillColor=none;align=left;verticalAlign=middle;spacingLeft=4;spacingRight=4;overflow=hidden;points=[[0,0.5],[1,0.5]];portConstraint=eastwest;rotatable=0;whiteSpace=wrap;html=1;fontSize=16;" vertex="1" parent="hYfYpdQn1SjsUa1Strw_-9">
          <mxGeometry y="30" width="167" height="30" as="geometry" />
        </mxCell>
        <mxCell id="hYfYpdQn1SjsUa1Strw_-11" value="title:varchar(60)" style="text;strokeColor=none;fillColor=none;align=left;verticalAlign=middle;spacingLeft=4;spacingRight=4;overflow=hidden;points=[[0,0.5],[1,0.5]];portConstraint=eastwest;rotatable=0;whiteSpace=wrap;html=1;fontSize=16;" vertex="1" parent="hYfYpdQn1SjsUa1Strw_-9">
          <mxGeometry y="60" width="167" height="30" as="geometry" />
        </mxCell>
        <mxCell id="hYfYpdQn1SjsUa1Strw_-12" value="content:text" style="text;strokeColor=none;fillColor=none;align=left;verticalAlign=middle;spacingLeft=4;spacingRight=4;overflow=hidden;points=[[0,0.5],[1,0.5]];portConstraint=eastwest;rotatable=0;whiteSpace=wrap;html=1;fontSize=16;" vertex="1" parent="hYfYpdQn1SjsUa1Strw_-9">
          <mxGeometry y="90" width="167" height="30" as="geometry" />
        </mxCell>
        <mxCell id="hYfYpdQn1SjsUa1Strw_-13" value="typeld:int(11)" style="text;strokeColor=none;fillColor=none;align=left;verticalAlign=middle;spacingLeft=4;spacingRight=4;overflow=hidden;points=[[0,0.5],[1,0.5]];portConstraint=eastwest;rotatable=0;whiteSpace=wrap;html=1;fontSize=16;" vertex="1" parent="hYfYpdQn1SjsUa1Strw_-9">
          <mxGeometry y="120" width="167" height="30" as="geometry" />
        </mxCell>
        <mxCell id="hYfYpdQn1SjsUa1Strw_-14" value="releaseDate:datetime" style="text;strokeColor=none;fillColor=none;align=left;verticalAlign=middle;spacingLeft=4;spacingRight=4;overflow=hidden;points=[[0,0.5],[1,0.5]];portConstraint=eastwest;rotatable=0;whiteSpace=wrap;html=1;fontSize=16;" vertex="1" parent="hYfYpdQn1SjsUa1Strw_-9">
          <mxGeometry y="150" width="167" height="30" as="geometry" />
        </mxCell>
        <mxCell id="hYfYpdQn1SjsUa1Strw_-17" value="t_diarytype" style="swimlane;fontStyle=0;childLayout=stackLayout;horizontal=1;startSize=30;horizontalStack=0;resizeParent=1;resizeParentMax=0;resizeLast=0;collapsible=1;marginBottom=0;whiteSpace=wrap;html=1;fontSize=16;fillColor=#1ba1e2;fontColor=#ffffff;strokeColor=#006EAF;" vertex="1" parent="1">
          <mxGeometry x="139" y="251" width="174" height="90" as="geometry" />
        </mxCell>
        <mxCell id="hYfYpdQn1SjsUa1Strw_-18" value="diaryTypeld:int(11)" style="text;strokeColor=none;fillColor=none;align=left;verticalAlign=middle;spacingLeft=4;spacingRight=4;overflow=hidden;points=[[0,0.5],[1,0.5]];portConstraint=eastwest;rotatable=0;whiteSpace=wrap;html=1;fontSize=16;" vertex="1" parent="hYfYpdQn1SjsUa1Strw_-17">
          <mxGeometry y="30" width="174" height="30" as="geometry" />
        </mxCell>
        <mxCell id="hYfYpdQn1SjsUa1Strw_-19" value="typeName:varchar(30)" style="text;strokeColor=none;fillColor=none;align=left;verticalAlign=middle;spacingLeft=4;spacingRight=4;overflow=hidden;points=[[0,0.5],[1,0.5]];portConstraint=eastwest;rotatable=0;whiteSpace=wrap;html=1;fontSize=16;" vertex="1" parent="hYfYpdQn1SjsUa1Strw_-17">
          <mxGeometry y="60" width="174" height="30" as="geometry" />
        </mxCell>
        <mxCell id="hYfYpdQn1SjsUa1Strw_-21" style="edgeStyle=none;curved=1;rounded=0;orthogonalLoop=1;jettySize=auto;html=1;entryX=0;entryY=0.5;entryDx=0;entryDy=0;fontSize=12;startSize=8;endSize=8;" edge="1" parent="1" source="hYfYpdQn1SjsUa1Strw_-17" target="hYfYpdQn1SjsUa1Strw_-17">
          <mxGeometry relative="1" as="geometry" />
        </mxCell>
        <mxCell id="hYfYpdQn1SjsUa1Strw_-16" style="edgeStyle=none;curved=1;rounded=0;orthogonalLoop=1;jettySize=auto;html=1;exitX=1;exitY=0.5;exitDx=0;exitDy=0;fontSize=12;startSize=8;endSize=8;entryX=-0.007;entryY=0.133;entryDx=0;entryDy=0;entryPerimeter=0;" edge="1" parent="1" source="hYfYpdQn1SjsUa1Strw_-11" target="hYfYpdQn1SjsUa1Strw_-19">
          <mxGeometry relative="1" as="geometry">
            <mxPoint x="138" y="315" as="targetPoint" />
          </mxGeometry>
        </mxCell>
      </root>
    </mxGraphModel>
  </diagram>
</mxfile>
